<svg xmlns="http://www.w3.org/2000/svg" viewBox="0 0 24 24"><title>Artboard-187</title><g id="Shuffle"><path d="M4,12A3.984,3.984,0,0,1,8,8h4v2a1,1,0,0,0,1.707.707l3-3a1,1,0,0,0,0-1.414l-3-3A1,1,0,0,0,12,4V6H8A6,6,0,0,0,4.4,16.8a1,1,0,0,0,1.2-1.6A3.978,3.978,0,0,1,4,12ZM14,6.414,14.586,7,14,7.586Z" style="fill:#1c1b1e"/><path d="M19.6,7.2a1,1,0,0,0-1.2,1.6A4,4,0,0,1,16,16H12V14a1,1,0,0,0-1.707-.707l-3,3a1,1,0,0,0,0,1.414l3,3A1,1,0,0,0,12,20V18h4A6,6,0,0,0,19.6,7.2ZM10,17.586,9.414,17,10,16.414Z" style="fill:#1c1b1e"/></g></svg>